<?xml version="1.0" encoding="UTF-8"?><svg id="_レイヤー_2" xmlns="http://www.w3.org/2000/svg" width="143.28mm" height="161.2mm" viewBox="0 0 406.15 456.95"><defs><style>.cls-1{fill:#174189;}.cls-2{fill:#fff;}.cls-3{fill:#369ab9;}.cls-4{fill:#94cdd7;}.cls-5{fill:#1b4491;}.cls-6{fill:#4ab2af;}.cls-7{fill:none;}.cls-8{fill:#123e82;}</style></defs><g id="_レイヤー_1-2"><circle class="cls-1" cx="221.08" cy="263.9" r="51.96"/><path class="cls-4" d="m144.27,103.04l-72.36,12.23c-7.76,1.31-12.75-1.59-13.86-8.15l-1.68-9.95,11.5-14.68,70.17-11.86,14.84,9.48,1.48,8.74c1.31,7.77-2.32,12.88-10.09,14.19Z"/><path class="cls-3" d="m210.77,81.31c-1.85,3.81-3.66,7.86-5.27,11.63-3.23,7.54-8.81,9.98-16.1,6.72-12.2-5.68-24.56-12.33-36.52-19.55l-14.84-9.48c-16.62-11.18-31.63-23.13-42.54-34.52-6.53,14.59-16.04,30.68-27.63,46.38l-11.5,14.68c-8.28,10.14-17.36,19.91-26.82,29-5.77,5.72-11.64,4.97-17.36-.81-2.4-2.34-4.79-4.68-7.43-6.99-6.2-5.69-6.38-11.15-.36-16.92,27.87-25.68,51.28-60.11,63.32-87.86,2.65-6.45,6.61-9.61,13.17-10.72l15.05-2.54c6.56-1.11,11.34.58,16.13,5.26,26.82,27.19,60.14,48.53,92.8,59.99,7.98,2.9,9.85,8.07,5.9,15.73Z"/><path class="cls-6" d="m191.09,133.34c-5.44,26.89-12.58,57.06-19.52,83.96-2.01,7.33-6.98,10.42-14.35,9.67l-12.96-1.31c-8.38-.83-12.03-6.21-9.91-14.31,5.14-18.35,10.32-37.95,14.13-55.33l11.13-36.09,2.79-1.22c1.86-.82,4.81-1.07,10.69-.31l7.65.95c8.14.88,12,5.97,10.35,13.99Z"/><path class="cls-5" d="m159.61,119.93l-11.13,36.09-100.52,16.99c-7.77,1.31-12.88-2.32-14.19-10.09l-1.52-8.98c-1.31-7.77,2.32-12.88,10.09-14.19l117.27-19.82Z"/><rect class="cls-6" x="285.79" y="161.65" width="21.41" height="57.54" transform="translate(81.03 469.26) rotate(-85.02)"/><polygon class="cls-6" points="330.37 133.06 328.55 153.96 271.23 148.96 273.05 128.07 330.37 133.06"/><path class="cls-1" d="m355.53,94.32l-9.89,113.47c-.41,4.65-3.25,7.03-7.89,6.63l-7.11-.62c-4.64-.41-7.1-2.38-6.84-5.42l.42-4.79,1.86-21.33,2.47-28.3,1.82-20.9,2.31-26.55-57.32-5,2-21.31,71.55,6.23c4.64.4,7.03,3.24,6.62,7.89Z"/><path class="cls-3" d="m277.36,80.2l-2,21.31-2.31,26.56-1.82,20.89-2.47,28.3-1.86,21.33-.2,2.32c-.41,4.65-3.25,7.03-7.89,6.63l-6.09-.54c-4.65-.4-7.03-3.24-6.63-7.88l9.89-113.48c.41-4.64,3.25-7.03,7.89-6.62l13.49,1.18Z"/><path class="cls-2" d="m222.92,295.21v-4.84c0-2.79,1.49-4.1,4.19-4.93,7.82-2.23,13.13-10.33,12.66-24.02-.37-10.05-3.82-17.04-12.29-18.43-.37,11.64-1.12,24.48-4.65,35.19-3.44,10.33-8.47,16.94-16.38,16.66-12.29-.47-18.15-14.34-17.78-28.3.56-21.04,12.57-36.77,30.07-38.35,20.67-1.68,33.89,12.29,34.72,34.07,1.02,24.3-13.13,35.19-25.79,37.42-2.98.47-4.75-1.4-4.75-4.47Zm-16.2-15.08c7.45.28,7.73-27.18,7.54-36.87-7.73,2.61-12.1,12.94-12.66,23.27-.28,5.03.47,13.31,5.12,13.59Z"/><path class="cls-4" d="m110.99,308.49l-5.63.36c-4.19.26-6.78-3.17-7.18-9.51l-.61-9.71-13.1.83-17.94,1.14-8.39.53-18.85,1.2-13.1.83-1.83-27.64,26.4-1.68,18.6-1.18,38.63-2.46c4.19-.26,6.79,3.39,7.22,10.14l1.66,26.18c.43,6.75-1.69,10.7-5.88,10.97Z"/><path class="cls-3" d="m21.1,317.59l-4.58.29c-4.19.27-6.79-3.38-7.22-10.14l-1.88-29.55c-.43-6.76,1.69-10.71,5.88-10.97l11.06-.7,1.83,27.64.79,12.46c.43,6.75-1.69,10.7-5.88,10.97Z"/><path class="cls-3" d="m117.64,330.32c-1.4,15.35-5.83,20.09-15.13,20.68l-12.96.82c-15.72,1-19.63-6.81-21.17-31.09l-1.85-29.13,17.94-1.14,1.83,28.93c.39,6.12,1.09,6.71,4.36,6.5l8.38-.53c1.58-.1,2.45-.79,2.81-3.36,1.12-7.28,2.32-9.05,6.43-6.55,1.23.77,2.46,1.54,3.81,2.09,3.95,2.08,6.17,5.96,5.55,12.78Z"/><path class="cls-1" d="m69.36,263.66l-18.6,1.18-.43-6.76c-.43-6.75,1.69-10.7,5.88-10.97l5.5-.35c4.19-.26,6.75,2.75,7.1,8.24l.55,8.66Z"/><path class="cls-1" d="m58.14,292.13c-.2,32.02-4.44,54.34-31.67,68.57-3.81,2.15-6.58-.01-8.92-5.79-.8-2.28-1.72-4.34-2.78-6.61-2.92-6.6-2.15-11.09,2.7-13.31,19.53-9.3,21.48-22.14,21.82-41.66l18.85-1.2Z"/><rect class="cls-6" x="59.47" y="388.99" width="18.63" height="25.59" transform="translate(-25.31 5.16) rotate(-3.63)"/><path class="cls-3" d="m106.09,386.59l-28.82,1.83-18.59,1.18-25.15,1.6c-4.19.26-6.79-3.39-7.22-10.14l-.39-6.12c-.43-6.76,1.69-10.71,5.88-10.97l72.56-4.61c4.19-.27,6.79,3.38,7.22,10.14l.38,6.12c.43,6.75-1.68,10.7-5.87,10.97Z"/><path class="cls-1" d="m119.81,439.13l-96.13,6.11c-4.19.26-6.79-3.39-7.22-10.14l-.41-6.55c-.43-6.75,1.68-10.7,5.87-10.97l38.38-2.44,18.59-1.18,39.16-2.48c4.19-.27,6.79,3.38,7.22,10.14l.42,6.54c.43,6.76-1.69,10.71-5.88,10.97Z"/><path class="cls-4" d="m167.37,364.57l-5.2,40.85-3.92,5.36c-3.67,4.86-9.46,3.72-11.82-1.77-.67-1.81-1.53-3.52-2.39-5.23-1.71-3.54-1.03-6.11,2.03-8.92,8.37-7.85,15.95-19.39,21.3-30.29Z"/><path class="cls-4" d="m298.31,372.97l-4.07,31.95c-.53,4.19-4.01,6.14-9.68,5.42l-14.6-1.85,1.56-12.98.45-3.54,1.53-12.04.45-3.54-39.64-5.04-.45,3.54-1.53,12.04-.45,3.54-1.76,12.95-13.52-1.72c-5.66-.72-8.55-3.48-8.02-7.67l4.06-31.95c.54-4.19,4.02-6.15,9.69-5.43l67.96,8.65c5.66.72,8.55,3.48,8.02,7.67Z"/><path class="cls-3" d="m295.39,449.64c-1.79,1.37-3.6,2.87-5.21,4.26-3.29,3.18-7.17,4.02-12.1,1.79-12.73-6.01-21.06-13.99-26.62-24.01l.44-3.93,23.06,2.93c4.49,4.3,10.48,8.12,18.2,11.1,5.64,2.31,6.42,4.67,2.23,7.86Z"/><path class="cls-6" d="m299.99,424.81l-.3,2.36c-.53,4.19-4.02,6.14-9.68,5.42l-15.05-1.91-23.06-2.93-25.25-3.22-18.94-2.4c-5.67-.72-8.55-3.49-8.02-7.68l.3-2.35c.53-4.19,4.02-6.15,9.68-5.43l27.61,3.52,24.07,3.06,30.62,3.89c5.67.72,8.55,3.48,8.02,7.67Z"/><path class="cls-6" d="m230.12,333.56l-1.97,15.45-8.14-1.03c-5.66-.72-8.55-3.49-8.01-7.68l.3-2.35c.53-4.19,3.84-6.17,9.32-5.47l8.5,1.08Z"/><polygon class="cls-6" points="269.06 338.51 267.09 353.96 251.16 351.94 253.13 336.48 269.06 338.51"/><path class="cls-6" d="m308.4,350.17l-.3,2.35c-.53,4.19-3.67,6.19-8.97,5.52l-8.32-1.06,1.96-15.45,7.61.96c5.67.72,8.55,3.49,8.02,7.68Z"/><polygon class="cls-6" points="271.52 395.51 269.96 408.49 262.97 407.6 239.08 404.56 230.12 403.42 231.88 390.47 271.52 395.51"/><path class="cls-6" d="m195.42,327.82l-2.22,17.41-23-2.92,2.21-17.42c.53-4.19,4.02-6.14,9.68-5.42l5.31.67c5.66.72,8.55,3.49,8.02,7.68Z"/><path class="cls-6" d="m190.97,362.78l-.51,4.06-3.08,24.22-6.11,48.06c-.53,4.19-4.02,6.15-9.68,5.43l-5.31-.68c-5.67-.72-8.55-3.48-8.02-7.67l3.91-30.78,5.2-40.85.59-4.72,23.01,2.93Z"/><path class="cls-1" d="m203.07,396.39l-2.59,1.93c-4.55,3.28-8.82,2.87-10.33-.78-.81-2.1-1.8-4.22-2.77-6.48l3.08-24.22c3.41,4.29,10.26,14.08,14.64,20.62,2.26,3.48,1.52,6.45-2.03,8.93Z"/><path class="cls-6" d="m375.58,295.7h11.75v59.39s.44,8.05-4.38,10.48c0,0-2.64,1.91-8.81,1.96,0,0-3.24-.02-3.96-4.41,0,0-1.17-5.06-2.3-7.82l6.56.1s.94.05,1.12-1.39,0-58.33,0-58.33Z"/><path class="cls-1" d="m253.63,332.56l-.5,3.92-1.97,15.46c-.5,3.93-3.97,5.75-9.63,5.03l-5.31-.68c-5.66-.72-8.58-3.22-8.07-7.28l1.97-15.45.16-1.31c.54-4.19,4.02-6.14,9.69-5.42l5.31.67c5.66.72,8.66,2.57,8.35,5.06Z"/><path class="cls-1" d="m293.27,337.6l-.5,3.93-1.96,15.45c-.5,3.93-3.97,5.75-9.63,5.03l-6.02-.77c-5.67-.72-8.7-2.3-8.45-4.27l.38-3.01,1.97-15.45.16-1.31c.53-4.19,4.02-6.14,9.68-5.42l6.02.76c5.66.72,8.67,2.57,8.35,5.06Z"/><path class="cls-1" d="m262.97,407.6c-.6,1.92-1.03,3.86-1.62,5.65l-24.07-3.06c.77-1.77,1.19-3.71,1.8-5.63l23.89,3.04Z"/><path class="cls-1" d="m251.9,427.75l-.44,3.93c-7.9,8.31-20.46,13.77-42.67,15.87-5.47.63-8.81-1.39-11-5.39-.58-1.14-1.33-2.3-2.08-3.46-2.83-4.62-1.24-7.21,5.47-7.69,12-1,20.01-3.18,25.47-6.48l25.25,3.22Z"/><path class="cls-1" d="m206.53,353.58l-.56,4.45c-.54,4.19-3.32,6.24-7.92,5.65l-7.08-.9-23.01-2.93-7.78-.99c-5.67-.72-8.55-3.48-8.02-7.67l.57-4.45c.53-4.19,3.84-6.17,9.15-5.49l8.32,1.06,23,2.92,5.31.68c5.67.72,8.55,3.48,8.02,7.67Z"/><path class="cls-4" d="m402.71,308.92v.62c0,2.83-1.59,4.42-4.42,4.42h-33.59c-2.82,0-4.42-1.59-4.42-4.42v-.62c0-2.83,1.6-4.42,4.42-4.42h33.59c2.83,0,4.42,1.59,4.42,4.42Z"/><path class="cls-4" d="m355.95,334.29l-.97,1.5c-1.68,2.56-3.8,2.74-4.77.35l-1.77-4.24v-15.82c1.68,2.39,5.3,8.31,7.69,12.11,1.24,2.12,1.15,4.06-.18,6.1Z"/><path class="cls-3" d="m402.62,337.38c-2.39,2.39-4.86,4.68-6.98,6.45l-5.75-8.39c1.5-1.51,3.01-3.19,4.33-4.78,1.77-2.21,3.89-2.56,6.19-.79l1.77,1.32c2.47,1.86,2.65,4.07.44,6.19Z"/><path class="cls-3" d="m376.99,292.57h-11.4c-.18-.44-.36-.97-.62-1.41-1.15-2.83-.44-4.77,2.38-5.75l1.42-.53c2.47-.88,4.51-.17,5.83,2.21.97,1.95,1.86,3.89,2.39,5.48Z"/><path class="cls-6" d="m404.39,296.99v1.15c0,2.83-1.6,4.42-4.42,4.42h-37.39c-2.83,0-4.42-1.59-4.42-4.42v-1.15c0-2.83,1.33-4.42,3.72-4.42h38.09c2.82,0,4.42,1.59,4.42,4.42Z"/><path class="cls-6" d="m356.13,305.74v3.01c0,2.82-1.32,4.41-3.8,4.41h-19.8c-2.82,0-4.42-1.59-4.42-4.41v-3.01c0-2.83,1.6-4.42,4.42-4.42h19.18c2.83,0,4.42,1.59,4.42,4.42Z"/><path class="cls-6" d="m337.39,338.53c-.88,2.56-1.76,4.95-2.74,7.16-1.59,3.53-4.33,3.62-5.74.62-.44-.8-.8-1.68-1.24-2.48-1.06-2.21-1.06-3.97.18-6.1,3.8-6.71,6.98-16.17,8.75-24.57l.79,25.37Z"/><path class="cls-1" d="m404.56,356.29c-.71.98-1.5,2.04-2.12,3.01-1.68,2.47-3.8,3.18-6.1,1.32-3.53-2.82-6.54-6.36-9.01-10.42v-20.68c.71,2.03,1.59,4.06,2.56,5.92l5.75,8.39c2.29,2.65,4.86,4.95,7.86,6.72,2.56,1.59,3.01,3.36,1.06,5.74Z"/><path class="cls-1" d="m399.88,289.39c-.62,1.15-1.33,2.21-1.95,3.18h-11.49c.71-1.59,1.42-3.44,1.95-5.12.97-2.74,2.65-3.89,5.39-3.18l2.92.7c3.09.8,4.33,2.48,3.18,4.42Z"/><rect class="cls-1" x="356.57" y="316.08" width="49.58" height="10.34" rx="4.42" ry="4.42"/><path class="cls-1" d="m370.54,340.47l-1.51,1.06c-2.38,1.68-4.42,1.24-6.01-1.23-.79-1.15-1.68-2.39-2.56-3.54-1.77-2.3-1.5-4.51.88-6.18l1.06-.71c2.21-1.5,4.42-1.42,6.19.71,1.06,1.23,2.12,2.47,3.09,3.71,1.68,2.3,1.15,4.59-1.14,6.18Z"/><path class="cls-1" d="m348.44,287.89v13.43h-11.05v-13.43c0-2.83,1.59-4.42,4.42-4.42h2.21c2.83,0,4.42,1.59,4.42,4.42Z"/><rect class="cls-1" x="246.83" y="363.61" width="12.14" height="39.96" transform="translate(-159.51 586.11) rotate(-82.76)"/><line class="cls-7" x1="272.24" y1="394.04" x2="272.22" y2="394.18"/><polyline class="cls-7" points="254.71 337.18 256.35 324.82 254.63 337.78"/><path class="cls-8" d="m337.37,363.01s-.32,3.9,3.65,4.38l3.56.04s3.76.02,3.83-4.23v-50.04s-11.84,0-11.84,0l.8,49.85Z"/><path class="cls-4" d="m366.14,356.59s-.02,0-.03,0l4.07-2.39c2.3-1.41,2.92-3.36,2.21-5.83l-.53-1.86c-.88-3-3-3.8-5.74-2.39-3.8,1.95-7.51,3.8-10.61,5.3-2.65,1.24-3.36,3.27-2.12,5.83l1.33,2.74c1.24,2.65,3.36,3.27,5.92,1.86,1.73-1.04,3.46-2.07,5.27-3.11.08-.06.16-.11.24-.16Z"/></g></svg>